<svg xmlns="http://www.w3.org/2000/svg" viewBox="0 0 512 512"><path d="M462 75.998h-4V42c0-23.159-18.841-42-42-42s-42 18.841-42 42v33.998h-36.333c-5.522 0-10 4.477-10 10s4.478 10 10 10H374v22.668c0 5.523 4.478 10 10 10s10-4.477 10-10V75h44v171.127h-44V190c0-5.523-4.478-10-10-10s-10 4.477-10 10v66.127c0 1.788.479 3.544 1.389 5.084l23.095 39.122H201.667c-5.522 0-10 4.478-10 10s4.478 10 10 10H456c5.522 0 10-4.478 10-10s-4.478-10-10-10h-22.484l23.095-39.122a10.003 10.003 0 001.389-5.084V95.998h4c16.542 0 30 13.458 30 30v214H74v-73.871h200c18.748 0 34-15.252 34-34V34c0-18.748-15.252-34-34-34H34C15.252 0 0 15.252 0 34v198.127c0 18.748 15.252 34 34 34h20v111.871c0 27.57 22.43 50 50 50h129.036v24.023c-27.12.526-49.024 22.735-49.024 49.979 0 5.522 4.478 10 10 10h178.049c5.522 0 10-4.478 10-10 0-27.244-21.904-49.453-49.024-49.979v-24.023H462c27.57 0 50-22.43 50-50v-252c0-27.57-22.43-50-50-50zm-31.516 190.129L416 290.662l-14.484-24.535h28.968zM438 55h-44V42c0-12.131 9.869-22 22-22s22 9.869 22 22v13zM20 34c0-7.72 6.28-14 14-14h240c7.72 0 14 6.28 14 14v38H20V34zm14 212.127c-7.72 0-14-6.28-14-14V92h268v140.127c0 7.72-6.28 14-14 14H34zM360.348 492H205.725c4.128-11.643 15.252-20.004 28.291-20.004h98.041c13.039 0 24.163 8.361 28.291 20.004zm-107.312-40.004v-23.998h60v23.998h-60zM492 377.998c0 16.542-13.458 30-30 30H104c-16.542 0-30-13.458-30-30v-18h418v18z"/><path d="M256.127 36H163c-5.522 0-10 4.477-10 10s4.478 10 10 10h93.127c5.522 0 10-4.477 10-10s-4.478-10-10-10zM86.28 38.93A10.081 10.081 0 0079.2 36c-2.631 0-5.2 1.07-7.061 2.93-1.87 1.86-2.93 4.44-2.93 7.07s1.06 5.21 2.93 7.07A10.055 10.055 0 0079.2 56c2.64 0 5.22-1.07 7.08-2.93 1.859-1.86 2.93-4.44 2.93-7.07s-1.07-5.21-2.93-7.07zm-34.131 0C50.29 37.07 47.71 36 45.08 36s-5.21 1.07-7.07 2.93-2.93 4.44-2.93 7.07 1.069 5.21 2.93 7.07S42.45 56 45.08 56s5.21-1.07 7.069-2.93c1.86-1.86 2.931-4.44 2.931-7.07s-1.07-5.21-2.931-7.07zm68.25 0A10.056 10.056 0 00113.33 36c-2.63 0-5.2 1.07-7.07 2.93-1.86 1.86-2.93 4.44-2.93 7.07s1.069 5.21 2.93 7.07c1.87 1.86 4.44 2.93 7.07 2.93 2.64 0 5.21-1.07 7.069-2.93 1.86-1.86 2.931-4.44 2.931-7.07s-1.07-5.21-2.931-7.07zM72.142 163.024l27.195-27.195c3.906-3.906 3.906-10.237.001-14.142-3.904-3.905-10.234-3.905-14.143 0l-34.267 34.266a10.001 10.001 0 000 14.142l34.267 34.267a9.968 9.968 0 007.071 2.929 9.968 9.968 0 007.071-2.929c3.905-3.905 3.905-10.237 0-14.143l-27.195-27.195zm184.929-7.072l-34.266-34.266c-3.906-3.905-10.236-3.905-14.143 0-3.905 3.905-3.905 10.237 0 14.142l27.195 27.195-27.195 27.195c-3.905 3.905-3.905 10.237 0 14.143a9.968 9.968 0 007.071 2.929 9.968 9.968 0 007.071-2.929l34.267-34.267a10.001 10.001 0 000-14.142zm-73.813-42.715c-4.763-2.798-10.89-1.207-13.688 3.555l-48.383 82.331c-2.799 4.761-1.207 10.89 3.555 13.688a9.995 9.995 0 0013.688-3.555l48.383-82.331c2.798-4.761 1.207-10.89-3.555-13.688zM391.069 147.6c-1.859-1.87-4.439-2.93-7.069-2.93s-5.21 1.06-7.07 2.93a10.058 10.058 0 00-2.93 7.07c0 2.63 1.069 5.21 2.93 7.07 1.861 1.86 4.44 2.93 7.07 2.93s5.21-1.07 7.069-2.93a10.077 10.077 0 002.931-7.07c0-2.64-1.07-5.21-2.931-7.07zM157.401 300.333h-1.561c-5.522 0-10 4.478-10 10s4.478 10 10 10h1.561c5.522 0 10-4.478 10-10s-4.478-10-10-10z"/></svg>