<svg xmlns="http://www.w3.org/2000/svg" viewBox="0 0 512 512"><path d="M482 183.58V45c0-24.813-20.187-45-45-45H45C20.187 0 0 20.187 0 45v271c0 24.813 20.187 45 45 45h125.907l-15.562 31.642C118.537 397.397 90 428.918 90 467c0 8.284 6.716 15 15 15h168.58c6.192 17.459 22.865 30 42.42 30h151c24.813 0 45-20.187 45-45V226c0-19.555-12.541-36.228-30-42.42zM30 45c0-8.271 6.729-15 15-15h392c8.271 0 15 6.729 15 15v15H30V45zm241 407H122.57c6.191-17.461 22.873-30 42.43-30h106v30zm0-60h-81.907l15.246-31H271v31zm0-61H45c-8.271 0-15-6.729-15-15v-15h241v30zm0-105v45H30V90h422v91H316c-24.813 0-45 20.187-45 45zm211 241c0 8.271-6.729 15-15 15H316c-8.271 0-15-6.729-15-15v-15h181v15zm0-45H301V271h181v151zm0-181H301v-15c0-8.271 6.729-15 15-15h150.981l.019.001h.01c8.267.005 14.99 6.731 14.99 14.999v15z"/></svg>