<svg xmlns="http://www.w3.org/2000/svg" viewBox="0 0 511.999 511.999"><path d="M511.864 221.487c-.921-11.988-6.455-22.896-15.581-30.716l-44.286-37.96V44.944c0-8.284-6.716-14.999-14.999-14.999H377c-8.284 0-14.799 6.716-14.799 14.999v30.728L286.29 10.977c-16.97-14.539-41.603-14.537-58.519-.043L15.728 190.769c-18.753 16.068-21.186 44.423-4.866 63.473 12.439 14.465 32.364 19.077 49.35 13.107v229.584c0 8.284 6.516 14.999 14.799 14.999h361.986c8.284 0 14.999-6.716 14.999-14.999V267.352a44.974 44.974 0 0049.167-13.13c7.82-9.128 11.621-20.754 10.701-32.735zM391.999 59.943h30.199v67.154l-30.199-25.713V59.943zm-74.797 421.991H195.007V361.738h122.195v120.196zm104.996 0h-75.197V346.939c0-8.284-6.716-14.999-14.999-14.999H180.007c-8.284 0-14.799 6.716-14.799 14.999v134.995H90.011V245.775l166.943-141.613 165.245 141.473v236.299zm56.191-247.24c-5.318 6.198-14.772 7.107-21.158 1.631L266.765 73.061a14.997 14.997 0 00-19.464-.05L54.786 236.317c-6.282 5.375-15.782 4.642-21.161-1.615-5.385-6.285-4.657-15.774 1.569-21.11L247.238 33.756c5.66-4.848 13.874-4.849 19.53-.002l209.994 179.795c6.278 5.38 7.005 14.87 1.627 21.145z"/><path d="M302.002 179.938h-91.996c-8.284 0-14.799 6.716-14.799 14.999v89.996c0 8.284 6.516 14.999 14.799 14.999h91.996c8.284 0 14.999-6.716 14.999-14.999v-89.996c.001-8.284-6.715-14.999-14.999-14.999zm-14.799 89.997h-62.198v-59.998h62.198v59.998z"/><circle cx="271.999" cy="406.934" r="14.999"/></svg>