<svg xmlns="http://www.w3.org/2000/svg" viewBox="0 0 387.2 387.2"><path d="M304.8 10.84v-.04A36.64 36.64 0 00278.84 0H108.32C88.067.066 71.666 16.467 71.6 36.72v313.72a36.64 36.64 0 0010.8 25.96 36.642 36.642 0 0025.92 10.8h170.56a36.642 36.642 0 0025.92-10.8 36.642 36.642 0 0010.8-25.92V36.76a36.642 36.642 0 00-10.8-25.92zM193.6 362.28c-5.479 0-9.92-4.441-9.92-9.92s4.441-9.92 9.92-9.92 9.92 4.441 9.92 9.92-4.441 9.92-9.92 9.92zM286.44 300c0 13.255-10.745 24-24 24H124.72c-13.255 0-24-10.745-24-24V66.2c0-13.255 10.745-24 24-24h137.76c13.255 0 24 10.745 24 24l-.04 233.8z"/></svg>