<svg xmlns="http://www.w3.org/2000/svg" viewBox="0 0 513.13 513.13"><path d="M489.628 282.261a224.327 224.327 0 001.621-26.923c-.822-129.544-106.358-233.972-235.904-233.429-8.99.093-17.966.727-26.88 1.899C158.522-19.895 66.393 1.376 22.69 71.319c-30.549 48.891-30.228 111 .826 159.572a224.574 224.574 0 00-1.6 26.901c.811 129.544 106.337 233.983 235.883 233.451 8.997-.094 17.98-.728 26.901-1.899 69.955 43.684 162.078 22.387 205.762-47.569 30.523-48.878 30.198-110.957-.834-159.514zM257.457 427.328c-82.816.427-128.256-48.661-128.384-74.005v-10.667c-.131-17.673 14.089-32.105 31.761-32.237 16.756-.124 30.771 12.698 32.132 29.399 8.341 16.405 37.931 23.637 64.213 23.467 2.624 0 64-.832 63.765-43.008 0-20.373-27.221-28.565-71.872-39.659-53.717-13.376-120.491-29.973-120.875-98.048-.469-86.059 66.517-96.341 116.821-96.619 71.296-.363 117.483 28.715 117.717 74.048.145 17.673-14.064 32.117-31.736 32.262-16.151.133-29.869-11.791-31.987-27.803a81.07 81.07 0 00-55.061-14.507 101.57 101.57 0 00-37.589 4.608c-6.656 2.965-14.272 8.789-14.187 27.733 0 15.829 32.192 24.597 66.133 33.877 56.213 15.339 126.165 34.453 126.528 103.787.405 64.747-49.6 106.88-127.36 107.285l-.019.087z" fill="#2196f3"/></svg>